<svg width="158" height="162" viewBox="0 0 158 162" fill="none" xmlns="http://www.w3.org/2000/svg">
<rect width="158" height="162" rx="14" fill="#D4E8FF"/>
<path d="M70.0392 123.294C70.0145 123.109 70.0791 122.923 70.2313 122.815C70.9272 122.32 73.3142 121 79 121C84.6858 121 87.0728 122.32 87.7687 122.815C87.9209 122.923 87.9855 123.109 87.9608 123.294L86.2616 136.038C86.0968 137.274 85.3644 138.363 84.2813 138.982L83.9614 139.165C80.8871 140.922 77.1129 140.922 74.0386 139.165L73.7187 138.982C72.6356 138.363 71.9032 137.274 71.7384 136.038L70.0392 123.294Z" stroke="black" stroke-width="1.5"/>
<path d="M70 124C72.5714 126.667 85.4286 126.667 88 124" stroke="black" stroke-width="1.5"/>
<path d="M78 137L81 133.5M81 133.5L86 136M81 133.5L87 130.5" stroke="black" stroke-width="1.5"/>
<path d="M71.5 135L74.7359 134.538C74.9041 134.514 75.0745 134.562 75.2049 134.671L78 137L81 140" stroke="black" stroke-width="1.5"/>
<path d="M75 134.5L77.6149 131.449C77.8284 131.2 78.2025 131.169 78.4546 131.379L81 133.5" stroke="black" stroke-width="1.5"/>
<path d="M36 69V62.7485C36 62.5894 35.9368 62.4368 35.8243 62.3243L32.6757 59.1757C32.5632 59.0632 32.4106 59 32.2515 59H20.6C20.2686 59 20 59.2686 20 59.6V78.4C20 78.7314 20.2686 79 20.6 79H27" stroke="black" stroke-width="1.5" stroke-linecap="round" stroke-linejoin="round"/>
<path d="M24 67H32M24 63H28M24 71H27" stroke="black" stroke-width="1.5" stroke-linecap="round" stroke-linejoin="round"/>
<path d="M33.9543 73.9394L34.9543 72.9394C35.3922 72.5015 36.1022 72.5015 36.5401 72.9394V72.9394C36.978 73.3773 36.978 74.0873 36.5401 74.5252L35.5401 75.5252M33.9543 73.9394L30.9632 76.9305C30.8133 77.0804 30.715 77.2741 30.6823 77.4835L30.4396 79.0399L31.9959 78.7973C32.2054 78.7646 32.3991 78.6662 32.549 78.5163L35.5401 75.5252M33.9543 73.9394L35.5401 75.5252" stroke="black" stroke-width="1.5" stroke-linecap="round" stroke-linejoin="round"/>
<path d="M32 59V62.4C32 62.7314 32.2686 63 32.6 63H36" stroke="black" stroke-width="1.5" stroke-linecap="round" stroke-linejoin="round"/>
<path d="M119 71C119 73.2091 120.791 75 123 75C125.209 75 127 73.2091 127 71C127 68.7909 125.209 67 123 67C120.791 67 119 68.7909 119 71ZM119 71V63" stroke="black" stroke-width="1.5" stroke-linecap="round" stroke-linejoin="round"/>
<path d="M139 71C139 73.2091 137.209 75 135 75C132.791 75 131 73.2091 131 71C131 68.7909 132.791 67 135 67C137.209 67 139 68.7909 139 71ZM139 71V63" stroke="black" stroke-width="1.5" stroke-linecap="round" stroke-linejoin="round"/>
<path d="M131 71H127" stroke="black" stroke-width="1.5" stroke-linecap="round" stroke-linejoin="round"/>
<path d="M94.5752 128.736C94.4296 128.971 94.5017 129.279 94.7363 129.425L98.5597 131.798C98.7943 131.944 99.1026 131.871 99.2482 131.637C99.3938 131.402 99.3217 131.094 99.0871 130.948L95.6885 128.839L97.798 125.44C97.9436 125.206 97.8714 124.897 97.6368 124.752C97.4022 124.606 97.0939 124.678 96.9483 124.913L94.5752 128.736ZM130 91.5C129.5 91.4822 129.5 91.4821 129.5 91.4821C129.5 91.4822 129.5 91.4823 129.5 91.4824C129.5 91.4827 129.5 91.4833 129.5 91.484C129.5 91.4854 129.5 91.4877 129.5 91.4909C129.5 91.4972 129.499 91.5068 129.499 91.5196C129.498 91.5454 129.496 91.5842 129.494 91.6356C129.489 91.7382 129.481 91.8908 129.469 92.0887C129.445 92.4846 129.404 93.0615 129.338 93.7826C129.206 95.2251 128.973 97.2424 128.57 99.5385C127.761 104.142 126.275 109.819 123.573 114.239L124.427 114.761C127.225 110.181 128.739 104.358 129.555 99.7115C129.964 97.3826 130.2 95.3374 130.334 93.8736C130.401 93.1416 130.442 92.5545 130.467 92.1496C130.479 91.9471 130.487 91.7901 130.492 91.6833C130.495 91.6299 130.497 91.589 130.498 91.5612C130.499 91.5473 130.499 91.5367 130.499 91.5295C130.499 91.5259 130.499 91.5231 130.5 91.5211C130.5 91.5202 130.5 91.5194 130.5 91.5188C130.5 91.5186 130.5 91.5183 130.5 91.5182C130.5 91.518 130.5 91.5178 130 91.5ZM123.573 114.239C122.261 116.386 119.844 118.367 116.892 120.133C113.95 121.894 110.526 123.413 107.26 124.658C103.995 125.901 100.9 126.866 98.62 127.519C97.4804 127.846 96.5455 128.095 95.896 128.262C95.5713 128.345 95.318 128.408 95.1463 128.45C95.0605 128.471 94.995 128.487 94.9512 128.498C94.9293 128.503 94.9128 128.507 94.9019 128.509C94.8965 128.511 94.8924 128.512 94.8897 128.512C94.8884 128.513 94.8874 128.513 94.8868 128.513C94.8865 128.513 94.8863 128.513 94.8862 128.513C94.8861 128.513 94.8861 128.513 95 129C95.1139 129.487 95.1141 129.487 95.1144 129.487C95.1146 129.487 95.1149 129.487 95.1153 129.487C95.1161 129.486 95.1173 129.486 95.1188 129.486C95.1219 129.485 95.1263 129.484 95.1322 129.483C95.1439 129.48 95.1612 129.476 95.184 129.47C95.2294 129.459 95.2966 129.443 95.3842 129.422C95.5594 129.379 95.8164 129.315 96.145 129.23C96.8022 129.061 97.7461 128.81 98.8956 128.481C101.194 127.822 104.317 126.849 107.615 125.592C110.912 124.337 114.394 122.793 117.405 120.992C120.406 119.196 122.989 117.114 124.427 114.761L123.573 114.239Z" fill="black"/>
<path d="M63.4248 128.236C63.5704 128.471 63.4983 128.779 63.2637 128.925L59.4403 131.298C59.2057 131.444 58.8974 131.371 58.7518 131.137C58.6062 130.902 58.6783 130.594 58.9129 130.448L62.3115 128.339L60.202 124.94C60.0564 124.706 60.1286 124.397 60.3632 124.252C60.5978 124.106 60.9061 124.178 61.0517 124.413L63.4248 128.236ZM28 91C28.4997 90.9822 28.4997 90.9821 28.4997 90.9821C28.4997 90.9822 28.4997 90.9823 28.4997 90.9824C28.4997 90.9827 28.4997 90.9833 28.4997 90.984C28.4998 90.9854 28.4999 90.9877 28.5 90.9909C28.5003 90.9972 28.5006 91.0068 28.5012 91.0196C28.5022 91.0454 28.5039 91.0842 28.5064 91.1356C28.5113 91.2382 28.5192 91.3908 28.5313 91.5887C28.5554 91.9846 28.5961 92.5615 28.662 93.2826C28.7938 94.7251 29.0266 96.7424 29.43 99.0385C30.2387 103.642 31.7255 109.319 34.4266 113.739L33.5734 114.261C30.7745 109.681 29.2613 103.858 28.445 99.2115C28.0359 96.8826 27.7999 94.8374 27.6661 93.3736C27.5992 92.6416 27.5578 92.0545 27.5332 91.6496C27.5208 91.4471 27.5126 91.2901 27.5075 91.1833C27.505 91.1299 27.5032 91.089 27.502 91.0612C27.5015 91.0473 27.501 91.0367 27.5008 91.0295C27.5006 91.0259 27.5005 91.0231 27.5004 91.0211C27.5004 91.0202 27.5004 91.0194 27.5004 91.0188C27.5003 91.0186 27.5003 91.0183 27.5003 91.0182C27.5003 91.018 27.5003 91.0178 28 91ZM34.4266 113.739C35.7387 115.886 38.1561 117.867 41.1083 119.633C44.0505 121.394 47.4741 122.913 50.7405 124.158C54.0048 125.401 57.1001 126.366 59.38 127.019C60.5196 127.346 61.4545 127.595 62.104 127.762C62.4287 127.845 62.682 127.908 62.8537 127.95C62.9395 127.971 63.005 127.987 63.0488 127.998C63.0707 128.003 63.0872 128.007 63.0981 128.009C63.1035 128.011 63.1076 128.012 63.1103 128.012C63.1116 128.013 63.1126 128.013 63.1132 128.013C63.1135 128.013 63.1137 128.013 63.1138 128.013C63.1139 128.013 63.1139 128.013 63 128.5C62.8861 128.987 62.8859 128.987 62.8856 128.987C62.8854 128.987 62.8851 128.987 62.8847 128.987C62.8839 128.986 62.8827 128.986 62.8812 128.986C62.8781 128.985 62.8737 128.984 62.8678 128.983C62.8561 128.98 62.8388 128.976 62.816 128.97C62.7706 128.959 62.7034 128.943 62.6158 128.922C62.4406 128.879 62.1836 128.815 61.855 128.73C61.1978 128.561 60.2539 128.31 59.1044 127.981C56.8062 127.322 53.6827 126.349 50.3845 125.092C47.0884 123.837 43.6058 122.293 40.5948 120.492C37.5939 118.696 35.0113 116.614 33.5734 114.261L34.4266 113.739Z" fill="black"/>
<path d="M68 49V48C68 44.134 71.134 41 75 41V41C78.866 41 82 44.134 82 48V49" stroke="black" stroke-width="1.5" stroke-linecap="round"/>
<path d="M80 43V43C80 40.2386 82.2386 38 85 38V38C87.7614 38 90 40.2386 90 43V43.5" stroke="black" stroke-width="1.5" stroke-linecap="round"/>
<path d="M75 41C77.2091 41 79 39.2091 79 37C79 34.7909 77.2091 33 75 33C72.7909 33 71 34.7909 71 37C71 39.2091 72.7909 41 75 41Z" stroke="black" stroke-width="1.5" stroke-linecap="round" stroke-linejoin="round"/>
<path d="M85 38C86.6569 38 88 36.6569 88 35C88 33.3431 86.6569 32 85 32C83.3431 32 82 33.3431 82 35C82 36.6569 83.3431 38 85 38Z" stroke="black" stroke-width="1.5" stroke-linecap="round" stroke-linejoin="round"/>
<path d="M78.1464 109.354C78.3417 109.549 78.6583 109.549 78.8536 109.354L82.0355 106.172C82.2308 105.976 82.2308 105.66 82.0355 105.464C81.8403 105.269 81.5237 105.269 81.3284 105.464L78.5 108.293L75.6716 105.464C75.4763 105.269 75.1597 105.269 74.9645 105.464C74.7692 105.66 74.7692 105.976 74.9645 106.172L78.1464 109.354ZM78 56.5V109H79V56.5H78Z" fill="black"/>
</svg>
