<svg width="139" height="142" viewBox="0 0 139 142" fill="none" xmlns="http://www.w3.org/2000/svg">
<rect width="138.494" height="142" rx="12.2716" fill="#D4E8FF"/>
<path d="M37.3333 52.3333C37.3333 53.8061 38.5272 55 40 55C41.4728 55 42.6667 53.8061 42.6667 52.3333C42.6667 50.8606 41.4728 49.6667 40 49.6667C38.5272 49.6667 37.3333 50.8606 37.3333 52.3333ZM37.3333 52.3333V47" stroke="black" stroke-linecap="round" stroke-linejoin="round"/>
<path d="M50.6667 52.3333C50.6667 53.8061 49.4728 55 48 55C46.5272 55 45.3333 53.8061 45.3333 52.3333C45.3333 50.8606 46.5272 49.6667 48 49.6667C49.4728 49.6667 50.6667 50.8606 50.6667 52.3333ZM50.6667 52.3333V47" stroke="black" stroke-linecap="round" stroke-linejoin="round"/>
<path d="M45.3333 52.3333H42.6667" stroke="black" stroke-linecap="round" stroke-linejoin="round"/>
<path d="M62.3333 47.3333C62.3333 48.8061 63.5272 50 65 50C66.4728 50 67.6667 48.8061 67.6667 47.3333C67.6667 45.8606 66.4728 44.6667 65 44.6667C63.5272 44.6667 62.3333 45.8606 62.3333 47.3333ZM62.3333 47.3333V42" stroke="black" stroke-linecap="round" stroke-linejoin="round"/>
<path d="M75.6667 47.3333C75.6667 48.8061 74.4728 50 73 50C71.5272 50 70.3333 48.8061 70.3333 47.3333C70.3333 45.8606 71.5272 44.6667 73 44.6667C74.4728 44.6667 75.6667 45.8606 75.6667 47.3333ZM75.6667 47.3333V42" stroke="black" stroke-linecap="round" stroke-linejoin="round"/>
<path d="M70.3333 47.3333H67.6667" stroke="black" stroke-linecap="round" stroke-linejoin="round"/>
<path d="M88.3333 52.3333C88.3333 53.8061 89.5272 55 91 55C92.4728 55 93.6667 53.8061 93.6667 52.3333C93.6667 50.8606 92.4728 49.6667 91 49.6667C89.5272 49.6667 88.3333 50.8606 88.3333 52.3333ZM88.3333 52.3333V47" stroke="black" stroke-linecap="round" stroke-linejoin="round"/>
<path d="M101.667 52.3333C101.667 53.8061 100.473 55 99 55C97.5272 55 96.3333 53.8061 96.3333 52.3333C96.3333 50.8606 97.5272 49.6667 99 49.6667C100.473 49.6667 101.667 50.8606 101.667 52.3333ZM101.667 52.3333V47" stroke="black" stroke-linecap="round" stroke-linejoin="round"/>
<path d="M96.3333 52.3333H93.6667" stroke="black" stroke-linecap="round" stroke-linejoin="round"/>
<path d="M68.5 75C68.5 75.2761 68.7239 75.5 69 75.5C69.2761 75.5 69.5 75.2761 69.5 75L68.5 75ZM69.3536 57.6464C69.1583 57.4512 68.8417 57.4512 68.6464 57.6464L65.4645 60.8284C65.2692 61.0237 65.2692 61.3403 65.4645 61.5355C65.6597 61.7308 65.9763 61.7308 66.1716 61.5355L69 58.7071L71.8284 61.5355C72.0237 61.7308 72.3403 61.7308 72.5355 61.5355C72.7308 61.3403 72.7308 61.0237 72.5355 60.8284L69.3536 57.6464ZM69.5 75L69.5 58L68.5 58L68.5 75L69.5 75Z" fill="black"/>
<path d="M83.433 74.9724C83.2949 75.2116 82.9891 75.2935 82.75 75.1555C82.5109 75.0174 82.4289 74.7116 82.567 74.4724L83.433 74.9724ZM91.3706 59.517C91.6373 59.4456 91.9115 59.6039 91.983 59.8706L93.1476 64.2173C93.2191 64.484 93.0608 64.7582 92.7941 64.8296C92.5274 64.9011 92.2532 64.7428 92.1817 64.4761L91.1464 60.6124L87.2827 61.6477C87.016 61.7191 86.7418 61.5608 86.6704 61.2941C86.5989 61.0274 86.7572 60.7532 87.0239 60.6817L91.3706 59.517ZM82.567 74.4724L91.067 59.75L91.933 60.25L83.433 74.9724L82.567 74.4724Z" fill="black"/>
<path d="M55.067 74.9724C55.2051 75.2116 55.5109 75.2935 55.75 75.1555C55.9891 75.0174 56.0711 74.7116 55.933 74.4724L55.067 74.9724ZM47.1294 59.517C46.8627 59.4456 46.5885 59.6039 46.517 59.8706L45.3524 64.2173C45.2809 64.484 45.4392 64.7582 45.7059 64.8296C45.9726 64.9011 46.2468 64.7428 46.3183 64.4761L47.3536 60.6124L51.2173 61.6477C51.484 61.7191 51.7582 61.5608 51.8296 61.2941C51.9011 61.0274 51.7428 60.7532 51.4761 60.6817L47.1294 59.517ZM55.933 74.4724L47.433 59.75L46.567 60.25L55.067 74.9724L55.933 74.4724Z" fill="black"/>
<path d="M61 101.4V82.6C61 82.2686 61.2686 82 61.6 82H73.2515C73.4106 82 73.5632 82.0632 73.6757 82.1757L76.8243 85.3243C76.9368 85.4368 77 85.5894 77 85.7485V101.4C77 101.731 76.7314 102 76.4 102H61.6C61.2686 102 61 101.731 61 101.4Z" stroke="black" stroke-width="1.5" stroke-linecap="round" stroke-linejoin="round"/>
<path d="M65 90L73 90" stroke="black" stroke-width="1.5" stroke-linecap="round" stroke-linejoin="round"/>
<path d="M65 98L73 98" stroke="black" stroke-width="1.5" stroke-linecap="round" stroke-linejoin="round"/>
<path d="M65 94L69 94" stroke="black" stroke-width="1.5" stroke-linecap="round" stroke-linejoin="round"/>
<path d="M73 82V85.4C73 85.7314 73.2686 86 73.6 86H77" stroke="black" stroke-width="1.5" stroke-linecap="round" stroke-linejoin="round"/>
</svg>
